<svg preserveAspectRatio="none" width="100%" height="100%" overflow="visible" style="display: block;" viewBox="0 0 66.1875 66.1875" fill="none" xmlns="http://www.w3.org/2000/svg">
<path id="Vector" d="M10.3998 55.7877C7.5607 52.9487 9.44312 46.9836 7.99891 43.4903C6.49914 39.8828 1 36.9512 1 33.0938C1 29.2363 6.49914 26.3047 7.99891 22.6972C9.44312 19.207 7.5607 13.2388 10.3998 10.3998C13.2388 7.5607 19.207 9.44312 22.6972 7.99891C26.3201 6.49914 29.2363 1 33.0938 1C36.9512 1 39.8828 6.49914 43.4903 7.99891C46.9836 9.44312 52.9487 7.5607 55.7877 10.3998C58.6268 13.2388 56.7444 19.2039 58.1886 22.6972C59.6884 26.3201 65.1875 29.2363 65.1875 33.0938C65.1875 36.9512 59.6884 39.8828 58.1886 43.4903C56.7444 46.9836 58.6268 52.9487 55.7877 55.7877C52.9487 58.6268 46.9836 56.7444 43.4903 58.1886C39.8828 59.6884 36.9512 65.1875 33.0938 65.1875C29.2363 65.1875 26.3047 59.6884 22.6972 58.1886C19.207 56.7444 13.2388 58.6268 10.3998 55.7877Z" stroke="var(--stroke-0, #FEF7FF)" stroke-width="2" stroke-linecap="round" stroke-linejoin="round"/>
</svg>
