<svg preserveAspectRatio="none" width="100%" height="100%" overflow="visible" style="display: block;" viewBox="0 0 140.771 32.834" fill="none" xmlns="http://www.w3.org/2000/svg">
<g id="surface">
<path id="Vector" d="M0 0V32.834H32.9063V0H0ZM29.4901 29.4253H3.41618V3.40868H29.4901V29.4253Z" fill="var(--fill-0, white)"/>
<path id="Vector_2" d="M27.1983 23.7042H20.6798V27.1386H27.1983V23.7042Z" fill="var(--fill-0, #FFC800)"/>
<path id="Vector_3" d="M41.5312 5.32444H44.756V10.0288L48.757 5.32444H52.573L48.17 10.3098L52.7192 16.9191H48.8494L45.9277 12.6116L44.7496 13.9201V16.9234H41.5247L41.5312 5.32444Z" fill="var(--fill-0, white)"/>
<path id="Vector_4" d="M59.0063 5.245H62.1108L67.0556 16.9233H63.5942L62.7472 14.8532H58.2668L57.4369 16.9233H54.0487L59.0063 5.245ZM61.8292 12.352L60.5392 9.05483L59.2213 12.3477L61.8292 12.352Z" fill="var(--fill-0, white)"/>
<path id="Vector_5" d="M69.8375 5.32444H73.2408L76.0141 9.81214L78.7854 5.32444H82.1886V16.9084H78.9853V10.2583L76.0141 14.7975H75.9475L72.9914 10.2927V16.9191H69.8375V5.32444Z" fill="var(--fill-0, white)"/>
<path id="Vector_6" d="M85.51 11.155V11.1206C85.51 7.742 88.1672 5.09271 91.7683 5.09271C93.8107 5.09271 95.2554 5.72125 96.483 6.78096L94.5911 9.05055C93.7613 8.35552 92.9314 7.95866 91.7963 7.95866C90.1193 7.95866 88.8251 9.36589 88.8251 11.1378V11.1721C88.8251 13.0427 90.1365 14.3899 91.979 14.3899C92.6329 14.4174 93.2803 14.2501 93.8387 13.9094V12.4957H91.5361V10.136H96.8808V15.3531C95.4609 16.521 93.675 17.1542 91.835 17.1421C88.2167 17.1507 85.51 14.6666 85.51 11.155Z" fill="var(--fill-0, white)"/>
<path id="Vector_7" d="M99.9378 11.155V11.1206C99.9378 7.79134 102.627 5.09271 106.213 5.09271C109.799 5.09271 112.448 7.75916 112.448 11.0992V11.1314C112.448 14.4607 109.759 17.1615 106.172 17.1615C102.586 17.1615 99.9378 14.4843 99.9378 11.155ZM109.167 11.155V11.1206C109.167 9.44956 107.955 7.99084 106.179 7.99084C104.403 7.99084 103.24 9.41523 103.24 11.0885V11.1206C103.24 12.7939 104.453 14.2526 106.213 14.2526C107.974 14.2526 109.167 12.8282 109.167 11.155V11.155Z" fill="var(--fill-0, white)"/>
<path id="Vector_8" d="M115.793 5.32444H119.018V10.0288L123.019 5.32444H126.837L122.428 10.3098L126.977 16.9191H123.107L120.192 12.6116L119.014 13.9201V16.9234H115.789L115.793 5.32444Z" fill="var(--fill-0, white)"/>
<path id="Vector_9" d="M128.261 11.155V11.1206C128.261 7.79134 130.95 5.09271 134.536 5.09271C138.122 5.09271 140.771 7.75916 140.771 11.0992V11.1314C140.771 14.4607 138.081 17.1615 134.497 17.1615C130.914 17.1615 128.261 14.4843 128.261 11.155ZM137.49 11.155V11.1206C137.49 9.44956 136.28 7.99084 134.504 7.99084C132.728 7.99084 131.565 9.41523 131.565 11.0885V11.1206C131.565 12.7939 132.775 14.2526 134.536 14.2526C136.297 14.2526 137.49 12.8282 137.49 11.155Z" fill="var(--fill-0, white)"/>
<path id="Vector_10" d="M44.1525 21.5828V26.6647H43.7419V21.5828H41.8349V21.2096H46.053V21.5828H44.1525Z" fill="var(--fill-0, white)"/>
<path id="Vector_11" d="M50.336 26.6647V21.2096H54.2252V21.5828H50.7424V23.728H53.8748V24.1013H50.7424V26.2893H54.2639V26.6647H50.336Z" fill="var(--fill-0, white)"/>
<path id="Vector_12" d="M61.0889 26.7568C59.5259 26.7568 58.3693 25.5191 58.3693 23.951V23.9359C58.3693 22.3936 59.5259 21.115 61.1039 21.115C61.4991 21.1073 61.8916 21.1808 62.2571 21.331C62.6225 21.4812 62.953 21.7049 63.228 21.9881L62.94 22.2842C62.7045 22.0309 62.4191 21.8288 62.1016 21.6908C61.7842 21.5527 61.4416 21.4816 61.0953 21.4819C59.7839 21.4819 58.7928 22.5545 58.7928 23.9209V23.9359C58.7928 25.3153 59.799 26.3922 61.1039 26.3922C61.893 26.3922 62.4326 26.0876 62.9873 25.5341L63.2603 25.798C62.682 26.375 62.0563 26.7568 61.0889 26.7568Z" fill="var(--fill-0, white)"/>
<path id="Vector_13" d="M71.3273 26.6647V24.1077H67.8208V26.6647H67.4145V21.2096H67.8208V23.7344H71.3209V21.2096H71.7272V26.6647H71.3273Z" fill="var(--fill-0, white)"/>
<path id="Vector_14" d="M80.6427 26.6647L76.7922 21.8166V26.6647H76.4009V21.2096H76.7836L80.5567 25.9547V21.2096H80.948V26.6647H80.6427Z" fill="var(--fill-0, white)"/>
<path id="Vector_15" d="M88.116 26.7569C86.4606 26.7569 85.3749 25.4398 85.3749 23.951V23.936C85.3749 22.4473 86.4756 21.1151 88.131 21.1151C89.7864 21.1151 90.8721 22.4323 90.8721 23.921C90.8721 23.921 90.8721 23.921 90.8721 23.936C90.8721 25.4248 89.7714 26.7569 88.116 26.7569ZM90.4508 23.936C90.4508 22.5888 89.4661 21.4819 88.116 21.4819C86.7658 21.4819 85.7962 22.5717 85.7962 23.921V23.936C85.7962 25.2853 86.7809 26.3922 88.131 26.3922C89.4812 26.3922 90.4508 25.3003 90.4508 23.951V23.936Z" fill="var(--fill-0, white)"/>
<path id="Vector_16" d="M95.2982 26.6647V21.2096H95.7046V26.2893H98.9165V26.6647H95.2982Z" fill="var(--fill-0, white)"/>
<path id="Vector_17" d="M105.365 26.7569C103.709 26.7569 102.623 25.4398 102.623 23.951V23.936C102.623 22.4473 103.724 21.1151 105.382 21.1151C107.039 21.1151 108.123 22.4323 108.123 23.921C108.123 23.921 108.123 23.921 108.123 23.936C108.123 25.4248 107.022 26.7569 105.365 26.7569ZM107.702 23.936C107.702 22.5888 106.717 21.4819 105.365 21.4819C104.012 21.4819 103.045 22.5717 103.045 23.921V23.936C103.045 25.2853 104.029 26.3922 105.382 26.3922C106.734 26.3922 107.702 25.3003 107.702 23.951V23.936Z" fill="var(--fill-0, white)"/>
<path id="Vector_18" d="M115.056 26.7568C113.336 26.7568 112.307 25.4868 112.307 23.9509V23.9359C112.307 22.4643 113.382 21.115 115.009 21.115C115.743 21.0896 116.458 21.346 117.008 21.8314L116.744 22.1361C116.268 21.6955 115.637 21.4604 114.988 21.4818C113.659 21.4818 112.73 22.6037 112.73 23.9208V23.9359C112.73 25.3474 113.612 26.3985 115.074 26.3985C115.708 26.3928 116.321 26.1736 116.815 25.7764V24.2083H114.988V23.835H117.204V25.9394C116.61 26.4604 115.847 26.7505 115.056 26.7568Z" fill="var(--fill-0, white)"/>
<path id="Vector_19" d="M121.783 26.6647V21.2096H122.19V26.6647H121.783Z" fill="var(--fill-0, white)"/>
<path id="Vector_20" d="M126.902 26.6647V21.2096H130.791V21.5828H127.308V23.728H130.439V24.1013H127.308V26.2893H130.83V26.6647H126.902Z" fill="var(--fill-0, white)"/>
<path id="Vector_21" d="M137.03 26.7415C136.209 26.7524 135.417 26.4385 134.827 25.8684L135.093 25.5659C135.346 25.827 135.65 26.0334 135.986 26.1726C136.322 26.3117 136.683 26.3805 137.047 26.3747C137.866 26.3747 138.43 25.9156 138.43 25.2914V25.2763C138.43 24.6993 138.124 24.3646 136.882 24.1158C135.57 23.8498 135.039 23.4057 135.039 22.5799V22.5648C135.039 21.754 135.781 21.1297 136.796 21.1297C137.482 21.1072 138.152 21.3439 138.671 21.7926L138.413 22.1122C137.968 21.7057 137.384 21.4852 136.781 21.4965C135.977 21.4965 135.446 21.9556 135.446 22.5262V22.5412C135.446 23.1183 135.742 23.468 137.039 23.734C138.335 24 138.836 24.4419 138.836 25.2356V25.2506C138.843 26.1344 138.084 26.7415 137.03 26.7415Z" fill="var(--fill-0, white)"/>
</g>
</svg>
